<mxfile host="app.diagrams.net" modified="2023-04-09T07:37:00.464Z" agent="Mozilla/5.0 (Macintosh; Intel Mac OS X 10_15_7) AppleWebKit/537.36 (KHTML, like Gecko) Chrome/111.0.0.0 Safari/537.36" etag="RS5VP3kJguzggBUUMoz-" version="21.1.5" type="device">
  <diagram id="ka0Fuo4G8w745130evli" name="Page-1">
    <mxGraphModel dx="1434" dy="689" grid="1" gridSize="10" guides="1" tooltips="1" connect="1" arrows="1" fold="1" page="1" pageScale="1" pageWidth="1700" pageHeight="1100" math="0" shadow="0">
      <root>
        <mxCell id="0" />
        <mxCell id="1" parent="0" />
        <mxCell id="uruAPA88b3i_0-DwBQ1k-50" value="" style="endArrow=none;html=1;rounded=0;entryX=0;entryY=0;entryDx=0;entryDy=0;" parent="1" target="uruAPA88b3i_0-DwBQ1k-47" edge="1">
          <mxGeometry width="50" height="50" relative="1" as="geometry">
            <mxPoint x="1340" y="490" as="sourcePoint" />
            <mxPoint x="450" y="330" as="targetPoint" />
            <Array as="points">
              <mxPoint x="880" y="490" />
              <mxPoint x="430" y="490" />
            </Array>
          </mxGeometry>
        </mxCell>
        <mxCell id="6cZLkk-OgrcyeEzadh7L-1" value="Actor" style="shape=umlActor;verticalLabelPosition=bottom;verticalAlign=top;html=1;outlineConnect=0;" parent="1" vertex="1">
          <mxGeometry x="60" y="140" width="30" height="60" as="geometry" />
        </mxCell>
        <mxCell id="6cZLkk-OgrcyeEzadh7L-2" value="Nginx" style="ellipse;whiteSpace=wrap;html=1;" parent="1" vertex="1">
          <mxGeometry x="370" y="150" width="120" height="80" as="geometry" />
        </mxCell>
        <mxCell id="6cZLkk-OgrcyeEzadh7L-3" value="auth.demo.com" style="ellipse;whiteSpace=wrap;html=1;" parent="1" vertex="1">
          <mxGeometry x="190" y="80" width="120" height="80" as="geometry" />
        </mxCell>
        <mxCell id="6cZLkk-OgrcyeEzadh7L-4" value="" style="endArrow=classic;html=1;rounded=0;" parent="1" edge="1">
          <mxGeometry width="50" height="50" relative="1" as="geometry">
            <mxPoint x="100" y="180" as="sourcePoint" />
            <mxPoint x="180" y="140" as="targetPoint" />
          </mxGeometry>
        </mxCell>
        <mxCell id="6cZLkk-OgrcyeEzadh7L-5" value="" style="endArrow=classic;html=1;rounded=0;" parent="1" edge="1">
          <mxGeometry width="50" height="50" relative="1" as="geometry">
            <mxPoint x="110" y="190" as="sourcePoint" />
            <mxPoint x="350" y="190" as="targetPoint" />
          </mxGeometry>
        </mxCell>
        <mxCell id="6cZLkk-OgrcyeEzadh7L-9" value="mt-proxy" style="rounded=1;whiteSpace=wrap;html=1;" parent="1" vertex="1">
          <mxGeometry x="640" y="130" width="120" height="120" as="geometry" />
        </mxCell>
        <mxCell id="6cZLkk-OgrcyeEzadh7L-10" value="mt-proxy" style="rounded=1;whiteSpace=wrap;html=1;" parent="1" vertex="1">
          <mxGeometry x="650" y="140" width="120" height="120" as="geometry" />
        </mxCell>
        <mxCell id="6cZLkk-OgrcyeEzadh7L-11" value="mt-proxy" style="rounded=1;whiteSpace=wrap;html=1;" parent="1" vertex="1">
          <mxGeometry x="660" y="150" width="120" height="120" as="geometry" />
        </mxCell>
        <mxCell id="6cZLkk-OgrcyeEzadh7L-14" value="" style="endArrow=classic;html=1;rounded=0;" parent="1" edge="1">
          <mxGeometry width="50" height="50" relative="1" as="geometry">
            <mxPoint x="500" y="190" as="sourcePoint" />
            <mxPoint x="620" y="190" as="targetPoint" />
          </mxGeometry>
        </mxCell>
        <mxCell id="6cZLkk-OgrcyeEzadh7L-15" value="Static content and load balance" style="text;html=1;align=center;verticalAlign=middle;resizable=0;points=[];autosize=1;strokeColor=none;fillColor=none;" parent="1" vertex="1">
          <mxGeometry x="335" y="235" width="190" height="30" as="geometry" />
        </mxCell>
        <mxCell id="uruAPA88b3i_0-DwBQ1k-7" value="" style="endArrow=classic;html=1;rounded=0;" parent="1" edge="1">
          <mxGeometry width="50" height="50" relative="1" as="geometry">
            <mxPoint x="205" y="320" as="sourcePoint" />
            <mxPoint x="355" y="230" as="targetPoint" />
          </mxGeometry>
        </mxCell>
        <mxCell id="uruAPA88b3i_0-DwBQ1k-8" value="External API" style="text;html=1;align=center;verticalAlign=middle;resizable=0;points=[];autosize=1;strokeColor=none;fillColor=none;" parent="1" vertex="1">
          <mxGeometry x="205" y="250" width="90" height="30" as="geometry" />
        </mxCell>
        <mxCell id="uruAPA88b3i_0-DwBQ1k-18" value="" style="rounded=0;whiteSpace=wrap;html=1;" parent="1" vertex="1">
          <mxGeometry x="430" y="550" width="480" height="210" as="geometry" />
        </mxCell>
        <mxCell id="uruAPA88b3i_0-DwBQ1k-19" value="mt-access" style="rounded=1;whiteSpace=wrap;html=1;" parent="1" vertex="1">
          <mxGeometry x="740" y="580" width="120" height="120" as="geometry" />
        </mxCell>
        <mxCell id="uruAPA88b3i_0-DwBQ1k-20" value="mt-proxy" style="rounded=1;whiteSpace=wrap;html=1;" parent="1" vertex="1">
          <mxGeometry x="460" y="580" width="120" height="120" as="geometry" />
        </mxCell>
        <mxCell id="uruAPA88b3i_0-DwBQ1k-21" value="mt-proxy" style="rounded=1;whiteSpace=wrap;html=1;" parent="1" vertex="1">
          <mxGeometry x="470" y="590" width="120" height="120" as="geometry" />
        </mxCell>
        <mxCell id="uruAPA88b3i_0-DwBQ1k-22" value="app1" style="rounded=1;whiteSpace=wrap;html=1;" parent="1" vertex="1">
          <mxGeometry x="480" y="600" width="120" height="120" as="geometry" />
        </mxCell>
        <mxCell id="uruAPA88b3i_0-DwBQ1k-23" value="mt-access" style="rounded=1;whiteSpace=wrap;html=1;" parent="1" vertex="1">
          <mxGeometry x="750" y="590" width="120" height="120" as="geometry" />
        </mxCell>
        <mxCell id="uruAPA88b3i_0-DwBQ1k-24" value="app2" style="rounded=1;whiteSpace=wrap;html=1;" parent="1" vertex="1">
          <mxGeometry x="760" y="600" width="120" height="120" as="geometry" />
        </mxCell>
        <mxCell id="uruAPA88b3i_0-DwBQ1k-31" value="" style="endArrow=classic;startArrow=classic;html=1;rounded=0;exitX=0;exitY=0.5;exitDx=0;exitDy=0;entryX=1;entryY=0.5;entryDx=0;entryDy=0;" parent="1" source="uruAPA88b3i_0-DwBQ1k-24" target="uruAPA88b3i_0-DwBQ1k-22" edge="1">
          <mxGeometry width="50" height="50" relative="1" as="geometry">
            <mxPoint x="710" y="640" as="sourcePoint" />
            <mxPoint x="610" y="660" as="targetPoint" />
          </mxGeometry>
        </mxCell>
        <mxCell id="uruAPA88b3i_0-DwBQ1k-39" value="api.demo.com" style="text;html=1;align=center;verticalAlign=middle;resizable=0;points=[];autosize=1;strokeColor=none;fillColor=none;" parent="1" vertex="1">
          <mxGeometry x="170" y="165" width="100" height="30" as="geometry" />
        </mxCell>
        <mxCell id="uruAPA88b3i_0-DwBQ1k-43" value="Project mt-auth" style="text;html=1;strokeColor=none;fillColor=none;align=center;verticalAlign=middle;whiteSpace=wrap;rounded=0;" parent="1" vertex="1">
          <mxGeometry x="720" y="70" width="120" height="30" as="geometry" />
        </mxCell>
        <mxCell id="uruAPA88b3i_0-DwBQ1k-47" value="Corporate internal (AWS/AliCloud)" style="text;html=1;strokeColor=none;fillColor=none;align=center;verticalAlign=middle;whiteSpace=wrap;rounded=0;" parent="1" vertex="1">
          <mxGeometry x="430" y="10" width="130" height="30" as="geometry" />
        </mxCell>
        <mxCell id="uruAPA88b3i_0-DwBQ1k-55" value="" style="shape=flexArrow;endArrow=classic;startArrow=classic;html=1;rounded=0;" parent="1" edge="1">
          <mxGeometry width="100" height="100" relative="1" as="geometry">
            <mxPoint x="1090" y="220" as="sourcePoint" />
            <mxPoint x="1170" y="220" as="targetPoint" />
          </mxGeometry>
        </mxCell>
        <mxCell id="RTmqjn3Dx9Lmj0IT1D4e-1" value="" style="endArrow=classic;html=1;rounded=0;" parent="1" edge="1">
          <mxGeometry width="50" height="50" relative="1" as="geometry">
            <mxPoint x="420" y="590" as="sourcePoint" />
            <mxPoint x="380" y="270" as="targetPoint" />
            <Array as="points">
              <mxPoint x="380" y="590" />
            </Array>
          </mxGeometry>
        </mxCell>
        <mxCell id="RTmqjn3Dx9Lmj0IT1D4e-3" value="" style="endArrow=classic;html=1;rounded=0;" parent="1" edge="1">
          <mxGeometry width="50" height="50" relative="1" as="geometry">
            <mxPoint x="700" y="280" as="sourcePoint" />
            <mxPoint x="700" y="540" as="targetPoint" />
          </mxGeometry>
        </mxCell>
        <mxCell id="RTmqjn3Dx9Lmj0IT1D4e-8" value="" style="group" parent="1" vertex="1" connectable="0">
          <mxGeometry x="920" y="130" width="140" height="140" as="geometry" />
        </mxCell>
        <mxCell id="6cZLkk-OgrcyeEzadh7L-8" value="mt-access" style="rounded=1;whiteSpace=wrap;html=1;" parent="RTmqjn3Dx9Lmj0IT1D4e-8" vertex="1">
          <mxGeometry width="120" height="120" as="geometry" />
        </mxCell>
        <mxCell id="6cZLkk-OgrcyeEzadh7L-12" value="mt-access" style="rounded=1;whiteSpace=wrap;html=1;" parent="RTmqjn3Dx9Lmj0IT1D4e-8" vertex="1">
          <mxGeometry x="10" y="10" width="120" height="120" as="geometry" />
        </mxCell>
        <mxCell id="6cZLkk-OgrcyeEzadh7L-13" value="mt-access" style="rounded=1;whiteSpace=wrap;html=1;" parent="RTmqjn3Dx9Lmj0IT1D4e-8" vertex="1">
          <mxGeometry x="20" y="20" width="120" height="120" as="geometry" />
        </mxCell>
        <mxCell id="RTmqjn3Dx9Lmj0IT1D4e-10" value="" style="endArrow=classic;startArrow=classic;html=1;rounded=0;" parent="1" edge="1">
          <mxGeometry width="50" height="50" relative="1" as="geometry">
            <mxPoint x="790" y="190" as="sourcePoint" />
            <mxPoint x="910" y="190" as="targetPoint" />
          </mxGeometry>
        </mxCell>
        <mxCell id="RTmqjn3Dx9Lmj0IT1D4e-7" value="" style="group" parent="1" vertex="1" connectable="0">
          <mxGeometry x="922" y="290" width="308" height="165" as="geometry" />
        </mxCell>
        <mxCell id="RTmqjn3Dx9Lmj0IT1D4e-4" value="mt-proxy" style="rounded=1;whiteSpace=wrap;html=1;" parent="RTmqjn3Dx9Lmj0IT1D4e-7" vertex="1">
          <mxGeometry width="120" height="120" as="geometry" />
        </mxCell>
        <mxCell id="RTmqjn3Dx9Lmj0IT1D4e-5" value="mt-proxy" style="rounded=1;whiteSpace=wrap;html=1;" parent="RTmqjn3Dx9Lmj0IT1D4e-7" vertex="1">
          <mxGeometry x="10" y="10" width="120" height="120" as="geometry" />
        </mxCell>
        <mxCell id="RTmqjn3Dx9Lmj0IT1D4e-6" value="mt-integration-test" style="rounded=1;whiteSpace=wrap;html=1;" parent="RTmqjn3Dx9Lmj0IT1D4e-7" vertex="1">
          <mxGeometry x="20" y="20" width="120" height="120" as="geometry" />
        </mxCell>
        <mxCell id="RTmqjn3Dx9Lmj0IT1D4e-16" value="" style="endArrow=classic;html=1;rounded=0;" parent="1" edge="1">
          <mxGeometry width="50" height="50" relative="1" as="geometry">
            <mxPoint x="850" y="190" as="sourcePoint" />
            <mxPoint x="910" y="360" as="targetPoint" />
            <Array as="points">
              <mxPoint x="850" y="360" />
            </Array>
          </mxGeometry>
        </mxCell>
        <mxCell id="uruAPA88b3i_0-DwBQ1k-10" value="Redis Cache" style="rounded=1;whiteSpace=wrap;html=1;" parent="1" vertex="1">
          <mxGeometry x="1200" y="294.78" width="120" height="109.55" as="geometry" />
        </mxCell>
        <mxCell id="uruAPA88b3i_0-DwBQ1k-9" value="Redis Distribute&lt;br&gt;Lock" style="rounded=1;whiteSpace=wrap;html=1;" parent="1" vertex="1">
          <mxGeometry x="1200" y="50" width="120" height="109.55" as="geometry" />
        </mxCell>
        <mxCell id="uruAPA88b3i_0-DwBQ1k-13" value="RabbitMQ" style="rounded=1;whiteSpace=wrap;html=1;" parent="1" vertex="1">
          <mxGeometry x="1200" y="171.78" width="120" height="109.55" as="geometry" />
        </mxCell>
      </root>
    </mxGraphModel>
  </diagram>
</mxfile>
